<?xml version="1.0" standalone="no"?>
<!DOCTYPE svg PUBLIC "-//W3C//DTD SVG 20010904//EN"
 "http://www.w3.org/TR/2001/REC-SVG-20010904/DTD/svg10.dtd">
<svg version="1.0" xmlns="http://www.w3.org/2000/svg"
 width="1280.000000pt" height="853.000000pt" viewBox="0 0 1280.000000 853.000000"
 preserveAspectRatio="xMidYMid meet">
<metadata>
Created by potrace 1.15, written by Peter Selinger 2001-2017
</metadata>
<g transform="translate(0.000000,853.000000) scale(0.100000,-0.100000)"
fill="#000000" stroke="none">
<path d="M3746 7349 c-87 -110 -163 -213 -169 -229 -16 -43 1 -102 36 -118 15
-7 36 -10 47 -7 10 3 55 51 99 107 l81 101 0 -325 c0 -307 -1 -326 -21 -363
-23 -45 -20 -96 6 -125 13 -15 15 -82 13 -574 l-3 -556 -90 115 c-49 63 -95
115 -101 115 -6 0 -47 -46 -90 -102 l-79 -101 -3 67 c-2 47 1 73 13 88 19 28
20 108 0 134 -12 16 -14 97 -15 535 0 284 3 518 6 522 4 3 38 -34 76 -84 86
-110 107 -126 147 -109 35 14 55 58 47 102 -8 42 -330 460 -349 452 -6 -3 -85
-98 -174 -211 l-163 -206 0 -52 c0 -61 19 -85 68 -85 28 0 40 11 109 99 43 55
81 100 86 100 4 1 7 -193 7 -431 0 -264 -4 -428 -9 -422 -5 5 -32 38 -60 73
-41 51 -49 67 -41 81 6 10 10 34 10 52 0 28 -26 66 -151 228 -83 107 -160 206
-172 218 l-22 24 -51 -57 -50 -58 -69 87 c-38 48 -73 85 -79 83 -21 -7 -335
-419 -341 -448 -11 -51 19 -109 57 -109 11 0 18 -5 16 -10 -2 -6 -39 -56 -83
-111 l-80 -101 -3 246 c-1 135 -1 356 0 491 l3 245 75 -95 c42 -54 85 -98 98
-101 56 -15 92 21 92 91 0 28 -19 58 -113 177 -63 79 -117 154 -120 168 -8 32
-328 445 -345 445 -7 0 -86 -94 -177 -209 l-165 -208 0 -53 c0 -61 19 -85 67
-85 28 0 41 12 110 100 43 54 81 99 86 100 4 0 7 -78 7 -172 0 -156 -2 -176
-20 -203 -26 -40 -26 -104 0 -138 20 -25 20 -39 20 -596 0 -314 -4 -571 -8
-571 -4 0 -47 52 -97 115 -49 63 -95 115 -101 115 -7 0 -38 -34 -69 -75 -32
-41 -59 -75 -61 -75 -2 0 -4 97 -4 215 0 118 3 215 8 214 4 0 42 -45 85 -100
67 -86 81 -99 107 -99 45 0 70 31 70 88 0 46 -5 53 -155 246 -122 157 -155
206 -155 230 -1 25 -34 73 -162 234 -88 112 -167 206 -175 209 -10 4 -28 -8
-49 -33 l-33 -39 0 100 0 100 27 -31 c15 -17 53 -63 85 -102 64 -81 90 -90
132 -47 28 27 33 85 12 121 -30 51 -321 414 -332 414 -7 0 -87 -95 -179 -211
-159 -201 -166 -213 -166 -255 0 -34 6 -51 25 -69 46 -47 66 -36 162 87 l78
100 3 -202 2 -202 -48 -62 c-27 -34 -54 -71 -61 -83 -38 -72 25 -167 88 -133
l21 11 0 -282 0 -282 -126 159 c-69 87 -131 160 -137 162 -7 1 -50 -47 -97
-108 l-85 -110 -3 145 c-1 80 -1 211 0 292 l3 147 75 -96 c81 -105 106 -123
144 -108 32 12 46 39 46 89 0 43 5 36 -213 316 -60 77 -115 143 -122 147 -15
9 -6 19 -199 -225 -132 -168 -156 -203 -156 -232 0 -70 36 -106 92 -92 13 4
55 47 97 102 41 52 76 95 77 95 2 0 4 -343 3 -762 0 -431 4 -765 9 -770 5 -5
38 -8 73 -6 l64 3 5 345 5 345 50 64 50 64 5 -409 5 -409 72 -3 73 -3 2 413 3
413 83 -103 c46 -56 87 -102 92 -102 6 0 10 -121 10 -310 l0 -311 70 3 71 3
-1 798 c0 531 3 797 10 797 7 0 10 -267 10 -800 l0 -800 70 0 70 0 0 480 0
481 78 96 77 97 3 -317 2 -317 -30 -41 c-41 -57 -41 -109 0 -151 l30 -30 0
-149 0 -150 73 3 72 3 3 219 2 220 28 35 27 36 5 -255 5 -255 72 -3 73 -3 2
258 3 258 63 -79 63 -78 -2 -177 -1 -176 71 -3 71 -3 0 942 0 942 42 55 43 55
5 -994 5 -994 73 -3 72 -3 0 369 0 369 58 74 57 74 3 -443 2 -443 73 3 72 3 5
440 5 440 48 -62 47 -61 0 -381 0 -381 70 0 70 0 0 343 c1 285 3 345 15 361
19 25 19 97 0 122 -11 15 -14 59 -15 223 l0 203 36 49 c66 90 64 108 64 -638
l0 -664 71 3 70 3 -1 363 0 362 62 81 63 81 6 -183 c4 -101 7 -302 8 -446 l1
-263 70 0 70 0 0 445 c0 245 3 445 8 445 4 0 26 -26 50 -57 l42 -56 0 -206
c-1 -165 -4 -210 -15 -225 -19 -25 -19 -95 0 -120 11 -15 15 -48 15 -123 l0
-103 70 0 70 0 0 143 0 142 48 60 47 59 5 -199 5 -200 70 0 70 0 5 200 5 200
58 -71 57 -71 0 -132 0 -132 73 3 72 3 5 870 5 870 34 48 c19 26 38 47 43 47
4 0 8 -414 8 -920 l0 -921 73 3 72 3 -4 415 -3 415 62 78 c34 42 64 77 66 77
2 0 4 -69 4 -154 l0 -153 -30 -38 c-24 -30 -30 -48 -30 -85 0 -41 4 -52 30
-73 l30 -26 0 -231 0 -231 73 3 72 3 5 305 c5 293 6 307 26 333 12 15 25 27
28 27 3 0 7 -150 8 -332 l3 -333 123 -3 122 -3 0 278 1 278 29 -35 29 -35 1
-242 0 -243 70 0 70 0 0 665 c0 366 4 665 8 665 5 0 9 -8 9 -17 -1 -10 0 -309
1 -665 l2 -648 70 0 70 0 0 543 0 543 45 47 45 47 0 -590 0 -591 123 3 122 3
3 468 2 468 23 8 c13 5 38 25 55 45 l32 37 0 -516 0 -515 125 0 125 0 0 472 0
472 36 -42 c26 -31 43 -42 64 -42 33 0 70 40 70 75 0 18 4 21 24 18 13 -3 34
1 46 7 l23 12 -4 -483 -4 -484 170 0 170 0 5 170 5 170 45 58 c25 31 48 57 52
57 5 0 8 -104 8 -230 l0 -231 73 3 72 3 -3 228 c-3 156 0 227 7 227 6 0 42
-40 81 -90 39 -49 78 -94 87 -98 12 -7 15 -34 16 -138 l2 -129 73 -3 72 -3 2
628 3 628 5 -625 5 -625 70 0 70 0 3 303 2 303 78 96 77 97 3 -318 2 -318 -30
-38 c-24 -30 -30 -48 -30 -84 l0 -46 100 0 100 0 0 43 c0 33 7 50 35 82 l34
40 1 -82 0 -83 70 0 70 0 0 73 c0 41 3 76 6 80 4 3 35 -30 71 -74 l65 -80 66
3 67 3 3 764 2 764 37 48 c20 27 41 49 45 49 4 0 8 -367 8 -815 l0 -815 70 0
70 0 0 186 0 187 56 73 c31 41 61 74 65 74 5 0 9 -117 9 -260 l0 -260 70 0 70
0 0 260 c0 143 4 260 9 260 5 0 27 -24 50 -53 l41 -53 2 -205 3 -204 70 0 70
0 3 160 c2 116 6 169 17 192 19 39 19 70 0 107 -12 22 -15 71 -15 234 l0 205
33 43 c68 92 70 77 66 -470 l-4 -471 73 -3 72 -3 0 191 0 191 56 72 c31 40 60
73 65 75 5 2 10 -113 11 -260 l3 -263 70 0 70 0 3 268 2 268 45 -55 45 -55 0
-215 0 -216 98 0 c86 0 101 3 117 20 10 11 22 20 27 20 4 0 8 -9 8 -20 0 -18
7 -20 70 -20 69 0 70 0 70 27 l0 27 28 -27 c27 -26 33 -27 135 -27 l107 0 0
688 0 688 43 58 42 58 5 -744 5 -743 73 -3 72 -3 0 244 0 244 57 72 c31 39 60
71 65 71 4 0 8 -67 8 -149 0 -142 -1 -151 -24 -178 -59 -71 -62 -120 -11 -169
31 -29 35 -38 35 -83 l0 -51 70 0 70 0 0 123 c0 120 1 125 28 160 15 20 30 36
35 37 4 0 7 -72 7 -160 l0 -161 123 3 122 3 3 93 3 93 33 -36 c61 -64 126 -37
126 52 0 45 -6 55 -80 151 l-80 102 2 362 3 361 80 -99 c62 -76 87 -100 108
-102 16 -2 34 2 42 8 11 9 13 -71 14 -482 1 -271 5 -496 10 -501 4 -4 37 -7
72 -5 l64 3 5 345 5 345 50 64 50 64 5 -409 5 -409 72 -3 73 -3 2 413 3 413
78 -98 c44 -54 85 -101 93 -104 12 -4 14 -58 14 -314 l0 -309 70 0 70 0 0 800
c0 533 3 800 10 800 7 0 10 -266 10 -797 l-1 -798 71 -3 70 -3 0 481 0 481 78
96 77 97 3 -317 2 -317 -30 -41 c-42 -59 -42 -117 0 -152 l30 -26 0 -151 0
-151 73 3 72 3 5 227 c5 225 5 227 30 253 l25 27 5 -254 5 -253 72 -3 73 -3 2
258 3 258 78 -97 c96 -119 116 -130 162 -83 27 26 34 80 14 116 -20 38 -321
414 -333 417 -7 2 -40 -32 -72 -74 l-59 -77 -3 213 c-1 117 0 215 3 218 3 3
12 -3 19 -14 8 -11 43 -56 78 -99 52 -66 69 -81 95 -83 45 -5 73 29 73 87 0
44 -7 55 -155 245 -123 158 -155 205 -155 230 -1 25 -33 72 -166 239 -91 114
-171 207 -179 207 -7 0 -27 -17 -44 -37 l-30 -38 0 100 0 100 22 -26 c12 -14
50 -60 85 -102 70 -86 94 -95 137 -52 42 42 35 91 -26 172 -157 206 -283 363
-294 363 -7 0 -87 -95 -179 -211 l-167 -211 3 -51 c2 -41 8 -54 30 -70 43 -32
67 -18 154 94 l79 102 3 -202 2 -202 -55 -72 c-62 -79 -70 -101 -61 -152 9
-48 47 -73 87 -58 l29 11 0 -281 c0 -154 -2 -278 -4 -276 -2 2 -59 74 -126
159 -67 85 -128 156 -134 158 -6 1 -49 -47 -96 -108 l-85 -110 -3 145 c-1 80
-1 211 0 291 l3 147 74 -94 c82 -105 107 -124 145 -109 32 12 46 39 46 88 0
43 -6 51 -230 337 -95 122 -109 137 -121 130 -4 -3 -80 -98 -170 -211 l-163
-206 -26 32 c-15 18 -32 31 -38 29 -6 -2 -85 -98 -176 -213 -162 -204 -166
-210 -166 -256 0 -29 6 -52 14 -59 12 -10 -2 -32 -82 -134 l-97 -121 -3 188
c-1 103 -1 268 0 368 l3 180 78 -100 c79 -102 101 -117 142 -102 31 12 45 40
45 89 0 36 -14 57 -166 250 -92 116 -173 211 -180 211 -7 0 -44 -40 -81 -89
-38 -50 -71 -90 -75 -90 -6 -1 1 438 6 446 1 1 37 -43 79 -97 70 -90 81 -100
110 -100 38 0 50 7 66 37 14 28 14 68 0 96 -15 28 -303 400 -323 416 -18 15
-5 30 -205 -224 -147 -185 -151 -191 -151 -237 0 -60 26 -91 73 -86 26 3 44
19 112 103 l80 100 3 -323 c2 -310 1 -325 -18 -352 -26 -37 -26 -99 0 -133 20
-25 20 -38 18 -582 l-3 -556 -90 115 c-49 63 -97 115 -105 116 -8 0 -49 -44
-90 -97 l-75 -96 -3 66 c-2 48 1 74 13 89 19 28 19 81 0 118 -13 25 -15 102
-13 552 l3 523 80 -100 c68 -84 85 -100 112 -103 47 -5 73 26 73 86 0 46 -5
53 -164 257 -90 116 -170 210 -177 210 -13 0 -155 -170 -290 -348 -49 -65 -59
-85 -59 -118 0 -29 7 -47 25 -65 44 -44 69 -32 160 80 l80 99 3 -217 c1 -120
1 -311 0 -426 l-3 -209 -50 62 c-48 60 -49 63 -47 123 l3 61 -163 208 c-90
115 -168 210 -175 212 -6 2 -32 -21 -57 -52 l-45 -56 -68 85 c-37 48 -72 86
-79 86 -11 0 -301 -363 -331 -414 -30 -51 -2 -140 47 -148 17 -3 9 -17 -56
-98 -41 -52 -82 -102 -90 -110 -12 -12 -14 51 -14 479 0 277 4 491 9 489 5 -1
37 -39 71 -83 75 -97 95 -115 126 -115 40 0 64 33 64 89 0 48 -4 54 -115 195
-63 81 -115 154 -115 164 0 24 -329 444 -345 440 -13 -3 -312 -376 -333 -415
-20 -38 -15 -91 13 -118 46 -47 68 -36 163 84 l77 96 3 -175 c2 -163 1 -178
-19 -213 -24 -43 -21 -97 6 -127 13 -15 15 -84 13 -594 l-3 -576 -90 115 c-49
63 -97 115 -105 115 -8 0 -41 -34 -73 -76 -33 -41 -60 -74 -62 -72 -2 2 -1
101 2 220 l6 217 78 -99 c79 -99 102 -117 139 -105 40 13 63 92 39 137 -6 11
-76 103 -155 205 -103 133 -144 193 -144 212 0 15 -8 38 -17 51 -40 59 -324
410 -330 410 -4 0 -24 -19 -45 -42 l-37 -43 -1 103 c0 56 2 102 5 102 2 0 39
-43 81 -96 92 -115 117 -128 167 -86 12 11 17 30 17 66 0 51 -2 53 -166 264
-91 116 -169 212 -173 212 -9 0 -322 -394 -341 -429 -15 -29 -7 -87 16 -112 9
-11 30 -19 47 -19 33 0 52 18 137 128 30 39 58 71 63 72 4 0 7 -89 7 -197 l0
-198 -60 -75 c-54 -68 -60 -80 -60 -122 0 -65 26 -92 81 -85 l39 5 0 -274 c0
-151 -3 -274 -7 -273 -5 0 -62 69 -128 154 -66 85 -127 154 -135 154 -8 0 -53
-50 -100 -111 l-85 -111 -3 69 c-1 38 1 170 5 293 l8 224 65 -84 c85 -110 95
-119 129 -119 39 0 71 40 71 91 0 33 -16 58 -130 205 -115 149 -128 169 -111
176 33 12 54 54 48 97 -3 29 -28 68 -101 161 l-96 123 0 238 c0 131 4 240 8
243 4 3 43 -40 86 -95 69 -89 80 -99 109 -99 38 0 50 7 66 37 14 28 14 68 -1
96 -13 25 -314 413 -326 421 -14 8 -26 -5 -190 -214 -158 -199 -162 -205 -162
-252 0 -57 25 -88 70 -88 25 0 41 14 112 103 l83 102 3 -153 c2 -141 1 -155
-17 -170 -10 -9 -89 -106 -175 -215 -153 -195 -156 -199 -156 -248 0 -57 24
-89 66 -89 29 0 51 21 134 128 30 39 58 71 63 72 4 0 7 -97 7 -216 0 -214 0
-216 -24 -245 l-24 -28 -132 169 c-72 93 -136 173 -142 176 -7 4 -30 -13 -55
-42 -23 -27 -48 -48 -54 -46 -6 2 -19 -4 -29 -13 -16 -14 -23 -7 -100 92 -115
149 -130 165 -147 152 -11 -10 -13 27 -13 210 0 121 3 221 8 221 4 -1 34 -37
67 -81 93 -125 123 -142 170 -94 19 18 25 35 25 67 0 40 -10 56 -165 256 -91
116 -171 212 -178 212 -7 0 -53 -52 -103 -115 -49 -63 -91 -114 -94 -115 -3 0
-45 52 -94 115 -49 63 -95 115 -102 115 -10 0 -239 -280 -323 -396 -32 -44
-27 -119 10 -146 42 -32 67 -17 154 94 l80 101 3 -87 c1 -47 1 -125 0 -173
l-3 -86 -59 76 c-32 43 -62 77 -66 77 -4 0 -83 -95 -175 -211 -180 -228 -196
-260 -161 -313 16 -25 15 -27 -70 -133 -48 -59 -93 -115 -100 -123 -12 -12
-14 40 -14 354 0 218 4 366 9 364 5 -1 42 -43 81 -93 80 -100 85 -105 118
-105 39 0 62 34 62 91 0 50 -1 51 -166 260 -91 115 -170 209 -175 209 -5 0
-41 -40 -80 -90 -39 -49 -73 -90 -75 -90 -2 0 -4 99 -4 221 0 122 4 219 9 217
5 -1 37 -39 71 -83 34 -44 71 -88 82 -97 49 -43 108 -2 108 74 0 44 -6 54
-162 254 -90 115 -170 210 -178 211 -9 2 -78 -77 -174 -198z m-1749 -329 c35
-43 35 -52 -2 -95 l-35 -40 0 83 c0 45 3 82 8 81 4 0 17 -13 29 -29z m3263
-216 c0 -8 -5 -12 -10 -9 -6 4 -8 11 -5 16 9 14 15 11 15 -7z m-230 -4 c0 -5
-5 -10 -11 -10 -5 0 -7 5 -4 10 3 6 8 10 11 10 2 0 4 -4 4 -10z m3021 -148
l27 -37 -34 -40 -34 -40 0 78 c0 42 3 77 8 77 4 0 19 -17 33 -38z m-2822 -39
l31 7 0 -55 c0 -30 -2 -55 -4 -55 -5 0 -109 130 -121 150 -4 8 8 0 28 -19 30
-28 41 -33 66 -28z m-3976 -366 l75 -94 -70 -89 c-38 -49 -73 -93 -79 -98 -5
-6 -9 62 -9 182 0 106 2 192 4 192 2 0 38 -42 79 -93z m3967 40 c25 -33 40
-65 40 -82 0 -24 -27 -67 -82 -129 -4 -6 -8 52 -8 127 0 75 2 137 5 137 2 0
22 -24 45 -53z m6873 -40 l75 -94 -70 -89 c-38 -49 -73 -93 -79 -98 -5 -6 -9
62 -9 182 0 106 2 192 4 192 2 0 38 -42 79 -93z m-7070 63 c-3 -11 -7 -20 -9
-20 -2 0 -4 9 -4 20 0 11 4 20 9 20 5 0 7 -9 4 -20z m1347 -45 c0 -8 -4 -17
-10 -20 -6 -4 -10 5 -10 20 0 15 4 24 10 20 6 -3 10 -12 10 -20z m-1701 -92
c-1 -54 -4 -160 -8 -236 l-6 -139 -102 131 c-57 72 -103 133 -103 135 0 2 13
6 28 9 20 4 48 31 102 101 41 53 78 96 82 96 4 0 7 -44 7 -97z m6441 -105 l0
-203 -25 30 c-13 17 -24 40 -25 51 0 12 -6 21 -14 20 -20 -2 -98 102 -89 118
12 19 146 186 150 186 1 0 3 -91 3 -202z m-8540 49 c0 -24 -7 -52 -15 -63 -19
-25 -19 -104 0 -132 12 -16 15 -41 13 -89 l-3 -68 -71 90 c-38 50 -73 96 -78
102 -7 12 130 202 147 203 4 0 7 -19 7 -43z m2300 -304 l0 -337 -30 34 -29 35
-1 291 0 290 28 11 c15 6 28 11 30 12 1 1 2 -151 2 -336z m-1833 195 c27 -35
52 -69 56 -75 5 -8 -20 -47 -63 -103 -39 -49 -73 -90 -74 -90 -7 0 8 237 15
246 5 7 10 28 11 48 1 20 2 36 4 36 1 0 24 -28 51 -62z m2499 -3 c15 -23 15
-26 -5 -51 l-21 -27 0 52 c0 28 2 51 5 51 2 0 12 -11 21 -25z m1763 -115 c39
-49 71 -93 71 -96 0 -5 -106 -141 -137 -174 -11 -12 -13 16 -13 173 0 103 2
187 4 187 2 0 36 -40 75 -90z m3411 -217 c0 -200 -2 -235 -14 -223 -30 33
-198 251 -195 253 2 2 15 8 29 14 14 6 57 51 95 101 39 50 73 91 78 92 4 0 7
-107 7 -237z m-2114 15 c-20 -29 -20 -71 0 -113 10 -21 14 -54 12 -95 l-3 -64
-74 96 c-41 52 -74 98 -73 102 0 4 34 48 74 99 l73 92 3 -48 c2 -31 -2 -55
-12 -69z m-4056 -7 c6 -11 1 -25 -16 -44 l-24 -28 0 57 c0 50 2 55 16 44 8 -8
19 -21 24 -29z m4559 -49 l50 -64 -72 -91 -72 -91 -3 112 c-2 89 1 117 13 135
8 12 15 35 15 51 0 34 0 35 69 -52z m1477 -297 c15 -22 14 -26 -3 -49 -26 -37
-33 -32 -33 24 0 55 11 63 36 25z"/>
<path d="M268 3154 l-3 -257 -80 99 c-67 82 -86 100 -112 102 -41 4 -73 -35
-73 -89 0 -33 14 -56 112 -181 156 -200 228 -288 236 -288 4 0 34 35 67 78
l60 77 3 -113 c1 -62 1 -161 0 -220 l-3 -106 -54 69 c-91 116 -111 135 -147
135 -42 0 -64 -30 -64 -86 0 -47 3 -52 187 -286 95 -121 123 -163 123 -187 0
-23 35 -74 166 -240 92 -116 173 -211 180 -211 7 0 26 19 43 42 l31 42 0 -102
c0 -56 -2 -102 -3 -102 -2 0 -35 39 -72 88 -81 104 -91 112 -126 112 -37 0
-69 -42 -69 -91 0 -33 18 -61 165 -251 91 -117 172 -213 180 -213 7 0 88 94
179 209 161 203 166 210 166 256 0 36 -5 52 -23 68 -48 45 -79 26 -182 -111
-27 -37 -53 -67 -57 -67 -5 0 -8 88 -8 196 l0 197 60 79 c50 66 60 87 60 119
0 56 -38 94 -86 86 l-34 -6 0 277 c0 232 2 274 13 262 8 -8 67 -82 131 -163
102 -129 119 -147 133 -136 8 8 50 58 92 113 l76 99 3 -147 c1 -80 1 -211 0
-291 l-3 -146 -75 96 c-97 125 -119 137 -165 90 -19 -18 -25 -35 -25 -68 0
-41 9 -55 163 -253 93 -120 170 -209 179 -209 9 0 87 89 178 204 l162 204 30
-32 c16 -17 34 -28 40 -25 6 4 84 99 175 213 l164 206 -4 50 c-2 28 -6 57 -10
65 -5 10 24 54 88 134 l95 119 0 -367 c0 -201 -2 -366 -5 -366 -2 0 -38 42
-80 94 -94 117 -115 127 -160 81 -19 -18 -25 -35 -25 -68 0 -42 8 -54 166
-253 91 -115 171 -210 178 -212 7 -2 44 38 82 87 38 50 73 90 78 91 5 0 6 -41
3 -97 -4 -54 -7 -156 -7 -227 l0 -128 -79 99 c-97 123 -120 135 -166 88 -28
-27 -33 -84 -12 -121 32 -54 320 -414 332 -414 7 0 72 73 143 163 207 261 202
253 202 301 0 60 -23 88 -68 84 -37 -3 -46 -12 -169 -164 l-32 -39 0 325 c-1
308 0 327 19 355 26 39 26 95 0 128 -20 25 -20 38 -18 583 l3 557 92 -116 c51
-65 97 -117 103 -117 5 0 46 45 90 101 l80 100 0 -73 c-1 -48 -6 -80 -15 -92
-19 -26 -19 -86 0 -113 13 -19 15 -92 13 -549 l-3 -528 -75 96 c-76 99 -108
122 -147 107 -29 -11 -43 -39 -43 -87 0 -44 -6 -35 219 -325 63 -81 118 -147
122 -147 8 0 106 121 276 338 62 79 73 99 73 131 0 50 -31 91 -70 91 -34 0
-38 -4 -127 -116 l-68 -86 -3 210 c-1 116 -1 309 0 429 l3 218 50 -64 c49 -62
50 -65 47 -125 l-3 -61 166 -212 c91 -117 170 -213 175 -213 5 0 28 25 52 55
23 30 45 55 48 55 3 0 34 -39 70 -85 36 -47 70 -84 77 -83 6 2 63 68 125 148
222 282 218 277 218 323 -1 49 -18 75 -55 85 l-26 7 83 107 c46 59 86 107 91
107 4 1 7 -219 7 -489 0 -269 -3 -490 -7 -489 -5 0 -43 45 -86 100 -70 90 -80
99 -111 99 -46 0 -66 -25 -66 -87 0 -49 3 -54 114 -194 63 -79 117 -155 120
-169 5 -25 316 -432 335 -438 8 -3 275 323 334 408 41 59 5 154 -56 148 -31
-3 -47 -19 -164 -164 l-32 -39 0 177 c-1 160 1 181 19 210 25 42 25 88 0 121
-20 25 -20 38 -18 602 l3 577 93 -116 c51 -64 97 -116 102 -116 5 0 36 33 67
74 32 41 61 75 65 75 6 1 -1 -419 -7 -427 -1 -2 -26 28 -56 65 -110 142 -136
157 -184 108 -18 -17 -25 -35 -25 -64 0 -44 -7 -33 192 -288 91 -117 118 -158
118 -182 0 -23 36 -75 170 -245 119 -150 175 -213 185 -210 8 4 15 9 15 13 1
3 14 22 30 41 l30 34 0 -102 c0 -56 -4 -102 -9 -102 -5 0 -37 37 -72 82 -83
107 -94 118 -124 118 -41 0 -65 -33 -65 -91 0 -50 2 -52 161 -257 89 -114 168
-208 177 -209 11 -2 68 63 167 187 83 105 158 203 167 218 32 49 17 116 -32
142 -33 17 -64 -5 -139 -99 -40 -50 -77 -91 -82 -91 -5 0 -9 83 -9 193 l1 192
59 79 c52 69 60 85 60 123 0 34 -6 50 -26 69 -24 25 -35 26 -76 9 -17 -7 -18
10 -18 270 0 164 4 275 9 273 5 -1 64 -72 130 -155 67 -84 125 -153 130 -153
5 0 49 50 96 110 47 61 89 110 91 110 3 0 3 -129 -1 -287 -3 -159 -8 -288 -10
-288 -2 0 -38 44 -80 98 -69 88 -79 97 -110 97 -41 0 -75 -38 -75 -85 0 -38
17 -65 157 -243 102 -131 103 -132 79 -143 -41 -19 -59 -86 -35 -130 6 -11 51
-72 100 -135 l89 -116 0 -239 c0 -145 -4 -239 -10 -239 -5 0 -43 42 -84 94
-41 52 -84 97 -96 101 -31 10 -59 -3 -75 -35 -27 -51 -19 -84 36 -157 179
-235 284 -363 297 -361 9 2 89 95 178 208 163 204 164 205 164 256 0 62 -21
87 -71 82 -29 -3 -45 -17 -114 -102 l-80 -99 -3 152 -3 152 30 32 c16 18 95
115 175 217 140 176 146 186 146 230 0 61 -21 90 -65 90 -31 0 -41 -9 -115
-100 -45 -55 -83 -100 -85 -100 -3 0 -5 98 -5 218 1 212 1 218 24 245 l23 29
137 -176 c76 -97 141 -176 146 -176 5 0 26 22 47 50 21 27 43 47 50 45 7 -2
19 2 27 10 8 8 17 15 19 15 3 0 51 -59 108 -131 78 -101 106 -129 120 -126 18
5 19 -5 19 -214 0 -120 -2 -219 -4 -219 -2 0 -28 30 -57 68 -85 108 -110 132
-141 132 -40 0 -68 -35 -68 -86 0 -47 -3 -43 218 -326 63 -81 120 -148 126
-148 6 1 52 52 101 115 50 63 93 115 96 115 4 0 46 -51 94 -112 48 -62 93
-113 101 -113 7 0 88 94 179 209 162 205 165 210 165 257 0 72 -45 108 -98 80
-10 -5 -49 -50 -87 -100 -39 -50 -73 -91 -77 -91 -5 0 -8 75 -8 166 0 91 4
163 8 160 5 -3 31 -35 58 -71 30 -40 55 -64 65 -63 15 3 313 370 338 417 15
27 13 71 -3 100 -13 23 -9 30 72 133 47 60 91 113 99 119 11 10 13 -50 13
-355 0 -201 -3 -366 -7 -366 -5 1 -43 46 -86 100 -70 91 -80 100 -111 100 -47
0 -66 -25 -66 -87 0 -51 1 -52 161 -254 89 -112 167 -207 175 -212 9 -5 36 23
88 89 l76 97 0 -226 c0 -125 -3 -227 -7 -226 -5 0 -43 45 -86 100 -67 86 -81
99 -107 99 -45 0 -70 -31 -70 -87 0 -47 5 -54 165 -260 91 -117 170 -213 175
-213 9 0 286 342 333 410 26 37 22 96 -8 125 -48 49 -74 34 -186 -110 l-54
-69 -3 319 c-3 310 -2 321 19 363 23 47 21 92 -6 122 -13 15 -15 91 -13 574
l3 558 92 -116 c56 -69 98 -113 105 -110 7 3 47 49 88 102 l75 97 3 -68 c2
-48 -1 -73 -13 -89 -19 -28 -19 -107 0 -132 13 -17 15 -98 15 -538 0 -291 -4
-518 -9 -518 -5 0 -42 43 -82 95 -73 95 -98 113 -138 100 -30 -9 -54 -61 -48
-102 7 -42 319 -448 345 -448 9 0 85 86 179 205 l163 205 -3 54 c-2 46 -6 57
-29 74 -40 30 -63 15 -149 -93 -40 -49 -76 -90 -81 -90 -4 0 -8 191 -8 425 0
234 2 425 4 425 2 0 29 -31 59 -68 40 -49 53 -73 46 -83 -13 -20 -10 -80 4
-105 32 -54 320 -414 332 -414 7 0 31 22 52 50 21 27 41 49 45 50 4 0 36 -36
70 -79 35 -44 70 -80 79 -80 18 -1 329 395 343 435 14 42 -8 98 -44 115 l-31
14 85 108 86 108 0 -490 c0 -270 -2 -491 -5 -491 -2 0 -38 42 -80 94 -94 117
-115 127 -160 81 -28 -27 -33 -84 -12 -121 7 -12 57 -78 112 -148 55 -69 104
-140 110 -156 13 -39 325 -440 342 -440 7 0 88 93 178 207 165 207 165 208
165 259 0 62 -21 87 -71 82 -29 -3 -45 -17 -114 -103 l-80 -100 -3 178 c-2
166 -1 180 18 204 28 35 28 113 0 138 -20 18 -20 29 -20 597 0 318 2 578 4
578 2 0 42 -49 89 -108 94 -120 108 -134 123 -124 5 4 34 38 64 77 l55 69 3
-112 c1 -62 1 -161 0 -219 l-3 -106 -80 99 c-72 89 -84 99 -117 102 -46 4 -68
-24 -68 -86 0 -42 9 -56 155 -243 119 -153 155 -206 155 -229 0 -21 20 -55 73
-123 180 -229 261 -327 271 -327 7 0 26 19 44 42 l32 42 0 -102 c0 -56 -2
-102 -4 -102 -2 0 -34 38 -70 84 -86 110 -92 116 -126 116 -38 0 -70 -41 -70
-91 0 -33 18 -61 165 -251 91 -117 172 -213 180 -213 8 0 88 94 179 210 160
202 166 211 166 255 0 36 -5 52 -23 68 -46 44 -69 32 -164 -86 l-78 -97 -3
199 -2 198 60 80 c50 66 60 87 60 119 0 56 -38 94 -86 86 l-34 -6 0 277 c0
156 4 272 9 267 4 -6 61 -76 125 -157 64 -81 121 -150 126 -153 5 -3 49 44 97
105 l88 111 3 -145 c1 -81 1 -212 0 -292 l-3 -147 -78 102 c-86 112 -111 127
-155 94 -22 -16 -28 -29 -30 -70 l-3 -50 163 -209 c97 -124 170 -209 180 -209
10 0 84 86 182 210 150 188 166 213 166 248 0 48 -14 75 -45 87 -41 16 -64 0
-146 -104 l-81 -101 2 440 c1 242 1 590 1 773 l-1 332 -75 0 -75 0 0 -342 0
-341 -52 -69 -53 -69 -5 408 -5 408 -72 3 -73 3 -2 -412 -3 -413 -78 98 c-43
53 -85 100 -93 103 -12 4 -14 57 -14 314 l0 309 -70 0 -70 0 0 -800 c0 -527
-3 -800 -10 -800 -7 0 -10 273 -10 800 l0 800 -70 0 -70 0 0 -479 0 -478 -77
-98 -78 -97 -3 317 -2 317 30 41 c37 51 42 115 10 147 -11 11 -24 20 -30 20
-6 0 -10 58 -10 155 l0 155 -75 0 -75 0 0 -222 -1 -223 -29 -35 -29 -35 -1
258 0 257 -75 0 -75 0 -2 -257 -3 -257 -63 79 -63 79 2 175 1 176 -71 3 -71 3
0 -941 0 -942 -37 -49 c-21 -26 -41 -48 -45 -49 -5 0 -8 445 -8 990 l0 990
-75 0 -75 0 0 -366 0 -367 -57 -75 -58 -75 -3 442 -2 441 -75 0 -75 0 -2 -441
-3 -441 -47 61 -48 61 0 380 0 380 -70 0 -70 0 0 -342 c-1 -286 -3 -346 -15
-362 -19 -25 -19 -97 0 -122 11 -15 14 -60 15 -224 l0 -205 -40 -45 c-33 -37
-41 -42 -50 -30 -6 10 -10 244 -10 673 l0 658 -71 -3 -70 -3 1 -361 0 -360
-62 -82 -63 -82 -6 182 c-4 101 -7 301 -8 446 l-1 262 -70 0 -70 0 -2 -447 -3
-447 -47 59 -48 60 0 205 c1 164 4 209 15 224 19 25 19 97 0 122 -10 14 -14
47 -15 122 l0 102 -70 0 -70 0 0 -141 0 -141 -47 -60 -48 -61 -3 202 -2 201
-75 0 -75 0 -2 -202 -3 -203 -57 74 -58 74 0 129 0 128 -75 0 -75 0 0 -870 0
-870 -37 -50 c-21 -27 -41 -49 -45 -49 -5 -1 -8 413 -8 919 l0 921 -72 -3 -73
-3 3 -415 3 -415 -63 -79 -63 -78 -3 156 -3 157 31 37 c24 29 30 46 30 84 0
47 -23 88 -50 88 -6 0 -10 85 -10 235 l0 235 -75 0 -75 0 0 -305 0 -305 -30
-32 -29 -33 -1 338 0 337 -125 0 -125 0 0 -270 c0 -148 -2 -270 -5 -270 -3 0
-17 12 -30 28 -24 27 -24 27 -25 270 l0 242 -70 0 -70 0 -1 -667 c-1 -368 -5
-657 -9 -643 -4 14 -8 314 -9 668 l-1 642 -70 0 -70 0 0 -550 c0 -378 -3 -550
-11 -550 -5 0 -26 -17 -44 -38 l-35 -37 0 588 0 588 -122 -3 -123 -3 -5 -470
c-3 -258 -7 -471 -8 -472 -1 -2 -9 -3 -18 -3 -8 0 -31 -17 -49 -37 l-35 -38 0
513 0 512 -125 0 -125 0 0 -467 0 -468 -35 37 c-25 28 -42 38 -64 38 -36 0
-71 -33 -71 -67 0 -19 -5 -23 -33 -23 -18 0 -39 -6 -46 -12 -11 -11 -13 72
-10 472 l4 485 -172 3 -173 2 0 -166 0 -167 -47 -63 c-27 -35 -51 -64 -55 -64
-5 0 -8 104 -8 230 l0 231 -72 -3 -73 -3 3 -227 c2 -136 0 -228 -6 -228 -5 0
-38 37 -74 83 -36 45 -75 91 -87 101 -19 18 -21 29 -21 148 l0 128 -75 0 -75
0 -3 -627 -2 -628 -3 628 -2 627 -75 0 -75 0 0 -303 0 -302 -71 -90 c-38 -50
-74 -91 -80 -93 -5 -2 -9 117 -9 310 l1 313 29 39 c23 30 30 50 30 83 l0 43
-100 0 -100 0 0 -37 c0 -36 -42 -113 -61 -113 -5 0 -9 34 -9 75 l0 75 -70 0
-70 0 0 -75 c0 -41 -4 -75 -9 -75 -6 0 -36 34 -68 75 l-57 75 -73 0 -73 0 0
-766 0 -766 -39 -49 c-21 -26 -41 -45 -45 -42 -3 3 -6 370 -6 815 l0 808 -70
0 -70 0 0 -186 0 -186 -57 -74 c-32 -40 -61 -73 -65 -74 -5 0 -8 117 -8 260
l0 260 -70 0 -70 0 0 -260 c0 -143 -3 -260 -8 -260 -4 0 -26 24 -50 54 l-42
54 0 206 0 206 -75 0 -75 0 0 -167 c-1 -132 -4 -172 -15 -187 -19 -25 -19 -73
0 -106 11 -19 14 -72 15 -234 l0 -208 -32 -42 c-17 -22 -33 -43 -35 -45 -2 -3
-10 4 -19 15 -13 17 -14 74 -9 497 l7 477 -76 0 -76 0 0 -189 0 -188 -57 -76
c-32 -42 -61 -76 -65 -77 -5 0 -8 119 -8 265 l0 265 -75 0 -75 0 -2 -267 -3
-267 -42 53 -43 54 0 213 0 214 -105 0 c-94 0 -105 -2 -115 -20 -6 -11 -15
-20 -20 -20 -6 0 -10 9 -10 20 0 18 -7 20 -70 20 -63 0 -70 -2 -70 -20 0 -11
-4 -20 -10 -20 -5 0 -15 9 -22 20 -12 18 -24 20 -125 20 l-113 0 0 -689 0
-688 -42 -54 -43 -53 -3 742 -2 742 -75 0 -75 0 0 -242 0 -243 -56 -70 c-31
-38 -60 -71 -65 -73 -5 -2 -9 59 -9 145 l0 149 31 42 c16 22 33 56 36 75 6 41
-18 93 -47 102 -17 5 -20 15 -20 61 l0 54 -70 0 -70 0 0 -122 c0 -114 -1 -123
-26 -155 -14 -18 -29 -33 -35 -33 -5 0 -9 64 -9 155 l0 155 -125 0 -125 0 0
-95 0 -96 -31 36 c-24 26 -39 35 -63 35 -46 0 -66 -26 -66 -86 1 -46 5 -55 80
-149 l80 -100 0 -362 c0 -200 -2 -363 -3 -363 -2 0 -34 38 -71 85 -37 47 -74
92 -83 100 -18 18 -64 20 -82 3 -11 -11 -13 17 -10 157 1 94 2 320 1 503 l-2
332 -75 0 -75 0 0 -342 0 -341 -52 -69 -53 -69 -5 408 -5 408 -72 3 -73 3 -2
-413 -3 -412 -67 86 c-38 48 -79 95 -93 106 l-25 20 0 306 0 306 -70 0 -70 0
0 -800 c0 -527 -3 -800 -10 -800 -7 0 -10 273 -10 800 l0 800 -70 0 -70 0 0
-480 0 -480 -77 -95 -78 -96 -3 317 -2 316 30 41 c22 30 30 52 30 82 0 44 -22
85 -46 85 -12 0 -14 27 -14 155 l0 155 -75 0 -75 0 0 -222 -1 -223 -29 -35
-29 -35 -1 258 0 257 -75 0 -75 0 -2 -256z m1992 -319 c0 -60 -9 -68 -34 -30
-16 24 -16 27 4 55 12 17 23 30 26 30 2 0 4 -25 4 -55z m1526 -324 c-8 -9 -16
-31 -18 -49 l-3 -33 -56 73 -56 73 71 92 71 93 3 -116 c2 -91 -1 -120 -12
-133z m486 -77 l-77 -97 -3 43 c-2 24 3 56 12 75 20 41 20 72 1 109 -9 17 -15
56 -15 98 l0 69 80 -100 80 -100 -78 -97z m-2061 123 c90 -114 95 -122 72
-125 -16 -2 -45 -29 -86 -80 -34 -41 -72 -87 -84 -101 l-22 -26 -1 240 c0 191
3 237 13 227 6 -7 55 -68 108 -135z m5779 -254 c0 -246 -2 -293 -14 -293 -8 0
-21 -3 -30 -6 -14 -6 -16 27 -16 327 l1 334 29 -35 29 -35 1 -292z m-2412 -49
l-3 -96 -65 83 c-36 45 -69 89 -73 96 -5 9 16 44 65 106 l73 93 3 -93 c1 -51
1 -136 0 -189z m2722 219 l-1 -58 -23 29 -24 29 21 29 c11 15 22 28 24 28 2 0
3 -26 3 -57z m1542 -190 c-2 -65 -8 -123 -13 -129 -5 -6 -9 -25 -11 -42 -1
-18 -5 -32 -8 -32 -3 0 -29 31 -58 70 l-54 69 69 90 c37 50 70 90 73 91 3 0 4
-53 2 -117z m468 1 c36 -47 69 -91 74 -98 6 -9 -13 -41 -63 -104 -40 -51 -77
-92 -82 -92 -15 0 -10 83 6 104 8 11 15 38 15 61 0 23 -7 50 -15 61 -15 20
-22 154 -7 154 4 -1 36 -39 72 -86z m-2065 -66 c102 -132 113 -150 98 -147
-31 5 -52 -12 -122 -101 -44 -55 -82 -96 -86 -90 -7 11 -2 470 5 469 3 0 50
-59 105 -131z m-6505 -25 c0 -15 5 -21 13 -17 9 3 31 -17 56 -51 l42 -56 -72
-92 c-39 -51 -76 -96 -80 -102 -5 -5 -9 81 -9 196 l1 204 24 -30 c14 -16 25
-40 25 -52z m5550 -30 l0 -47 -21 21 c-20 20 -20 22 -4 47 10 14 19 26 21 26
2 0 4 -21 4 -47z m-6500 -169 c0 -111 -4 -184 -9 -182 -13 4 -141 169 -141
180 0 9 139 188 146 188 2 0 4 -84 4 -186z m10840 0 c0 -108 -4 -184 -9 -182
-5 2 -41 43 -80 91 l-70 89 75 94 c42 52 78 94 80 94 2 0 4 -84 4 -186z
m-4000 -54 c0 -71 -4 -130 -8 -130 -17 0 -82 101 -82 126 0 23 71 134 85 134
3 0 5 -58 5 -130z m-1180 -60 c0 -11 -4 -20 -10 -20 -5 0 -10 9 -10 20 0 11 5
20 10 20 6 0 10 -9 10 -20z m1340 -45 c0 -14 -2 -25 -4 -25 -2 0 -6 11 -8 25
-3 14 -1 25 3 25 5 0 9 -11 9 -25z m-126 -354 c-2 -2 -15 8 -29 23 -21 23 -33
27 -60 24 l-35 -4 0 59 0 59 64 -79 c35 -43 62 -80 60 -82z m-2874 47 l-1 -83
-33 39 -34 40 32 42 c17 24 32 43 34 44 1 0 2 -37 2 -82z m2757 -190 c-3 -8
-6 -5 -6 6 -1 11 2 17 5 13 3 -3 4 -12 1 -19z m243 8 c0 -3 -4 -8 -10 -11 -5
-3 -10 -1 -10 4 0 6 5 11 10 11 6 0 10 -2 10 -4z m3050 -171 c0 -41 -4 -75 -9
-75 -6 0 -22 16 -37 35 l-26 35 32 40 c17 22 34 40 36 40 2 0 4 -34 4 -75z"/>
</g>
</svg>
